# xmcd
#
# Track frame offsets: 
#        150
#        11310
#        25790
#        38637
#        51625
#        61882
#        74412
#        85400
#        95297
#        110207
#
# Disc length: 1611 seconds
#
# Revision: 1
# Processed by: cddbd v1.4PL0 Copyright (c) Steve Scherf et al.
# Submitted via: ExactAudioCopy v0.90b4
#
DISCID=8106490a
DTITLE=George Jones - Best Of The Best George Jones Sings His Gospel B
DTITLE=est
DYEAR=1900
DGENRE=Gospel
TTITLE0=Old Brush Arbors
TTITLE1=Family Bible
TTITLE2=Flowers For Mama
TTITLE3=Old Rugged Cross
TTITLE4=Where The Soul Never Dies
TTITLE5=Sweeter Than The Flowers
TTITLE6=How Beautiful Heaven Must Be
TTITLE7=Give Me Just One Day
TTITLE8=Soldier's Last Letter
TTITLE9=Where We'll Never Grow Old
EXTD=
EXTT0=
EXTT1=
EXTT2=
EXTT3=
EXTT4=
EXTT5=
EXTT6=
EXTT7=
EXTT8=
EXTT9=
PLAYORDER=
